<?xml version="1.0" encoding="UTF-8" standalone="no"?>
<!-- Created with Inkscape (http://www.inkscape.org/) -->

<svg
   version="1.1"
   id="svg1"
   width="231.52327"
   height="231.52328"
   viewBox="0 0 231.52327 231.52328"
   sodipodi:docname="avatar.svg"
   xmlns:inkscape="http://www.inkscape.org/namespaces/inkscape"
   xmlns:sodipodi="http://sodipodi.sourceforge.net/DTD/sodipodi-0.dtd"
   xmlns="http://www.w3.org/2000/svg"
   xmlns:svg="http://www.w3.org/2000/svg">
  <defs
     id="defs1" />
  <sodipodi:namedview
     id="namedview1"
     pagecolor="#ffffff"
     bordercolor="#000000"
     borderopacity="0.25"
     inkscape:showpageshadow="2"
     inkscape:pageopacity="0.0"
     inkscape:pagecheckerboard="0"
     inkscape:deskcolor="#d1d1d1"
     showgrid="false">
    <inkscape:page
       x="0"
       y="0"
       width="231.52327"
       height="231.52328"
       id="page1"
       margin="0"
       bleed="0" />
  </sodipodi:namedview>
  <g
     inkscape:groupmode="layer"
     inkscape:label="Image"
     id="g1"
     transform="translate(0.13057351,-23.363647)">
    <rect
       style="fill:#000000;fill-opacity:1;stroke:#000000;stroke-width:1.52328;stroke-linecap:square;stroke-dasharray:none;stroke-opacity:1"
       id="rect33"
       width="230"
       height="230"
       x="0.6310665"
       y="24.125288"
       inkscape:export-filename="rect33.svg"
       inkscape:export-xdpi="81.777779"
       inkscape:export-ydpi="81.777779" />
    <path
       style="fill:#000000;fill-opacity:0;stroke:#ffffff;stroke-width:2.26772;stroke-linecap:square;stroke-dasharray:none;stroke-opacity:1"
       d="m 110.40301,65.848682 11.7938,-11.029381 3.82206,18.564305 -18.67351,38.002224 z"
       id="path1" />
    <path
       style="fill:#000000;fill-opacity:0;stroke:#ffffff;stroke-width:2.26772;stroke-linecap:square;stroke-dasharray:none;stroke-opacity:1"
       d="m 138.35867,82.010547 14.85145,0.109202 -7.53493,15.725058 -38.54823,14.305433 z"
       id="path2" />
    <path
       style="fill:#000000;fill-opacity:0;stroke:#ffffff;stroke-width:2.26772;stroke-linecap:square;stroke-dasharray:none;stroke-opacity:1"
       d="m 107.6877,112.40528 -12.156822,1.17939 -12.519717,8.89081 -3.266012,8.61865 4.173238,6.71347 29.031223,-2.63095 -22.045584,8.25575 14.787784,5.98769 21.86414,-5.08046 9.34442,-13.97128 -8.16503,-13.15478 -14.69706,-4.71757 z"
       id="path3" />
    <path
       style="fill:#000000;fill-opacity:0;stroke:#ffffff;stroke-width:2.26772;stroke-linecap:square;stroke-dasharray:none;stroke-opacity:1"
       d="m 109.95577,123.83632 2.63095,5.44336 6.25986,2.90312 6.71347,-2.63095 2.26807,-5.26191"
       id="path4" />
    <path
       style="fill:#000000;fill-opacity:0;stroke:#ffffff;stroke-width:2.26772;stroke-linecap:square;stroke-dasharray:none;stroke-opacity:1"
       d="m 83.827665,123.01982 3.53818,4.17324 4.989742,-0.0907 3.628904,-2.72168 0.544335,-4.08252"
       id="path5" />
    <path
       style="fill:#000000;fill-opacity:0;stroke:#ffffff;stroke-width:2.26772;stroke-linecap:square;stroke-dasharray:none;stroke-opacity:1"
       d="m 104.86755,152.1775 -38.257869,5.12382 -35.012781,7.17335 -12.809554,13.49274 7.344144,2.04952 5.123822,-15.37146 -1.198413,3.71027"
       id="path6" />
    <path
       style="fill:#000000;fill-opacity:0;stroke:#ffffff;stroke-width:2.26772;stroke-linecap:square;stroke-dasharray:none;stroke-opacity:1"
       d="M 104.98,153.31126 87.445867,174.89173 64.404218,187.25555 58.447109,203.3285 53.501584,198.49537 63.61743,188.26713"
       id="path7" />
    <path
       style="fill:#000000;fill-opacity:0;stroke:#ffffff;stroke-width:2.26772;stroke-linecap:square;stroke-dasharray:none;stroke-opacity:1"
       d="m 174.55599,182.00858 -4.14032,6.95574 17.38936,35.27554 1.82174,7.12136"
       id="path8" />
    <path
       style="fill:#000000;fill-opacity:0;stroke:#ffffff;stroke-width:2.26772;stroke-linecap:square;stroke-dasharray:none;stroke-opacity:1"
       d="m 193.9327,227.88335 -6.62451,-4.14032 -122.056708,-1.98736 -7.121355,0.82807"
       id="path9" />
    <path
       style="fill:#000000;fill-opacity:0;stroke:#ffffff;stroke-width:2.26772;stroke-linecap:square;stroke-dasharray:none;stroke-opacity:1"
       d="m 62.436063,229.04264 3.477871,-7.12136 17.554967,-35.44116 0.331226,-5.63084"
       id="path10" />
    <path
       style="fill:#000000;fill-opacity:0;stroke:#ffffff;stroke-width:2.26772;stroke-linecap:square;stroke-dasharray:none;stroke-opacity:1"
       d="m 76.678772,183.83032 6.955742,3.14664 87.443606,1.49052 7.78381,-0.99368"
       id="path11" />
    <path
       style="fill:#000000;fill-opacity:0;stroke:#ffffff;stroke-width:2.26772;stroke-linecap:square;stroke-dasharray:none;stroke-opacity:1"
       d="m 108.89371,195.41362 -38.678096,14.63817 50.579046,-10.35382 8.8067,-7.73562 6.30751,5.95047 -13.80511,1.66614"
       id="path12" />
    <path
       style="fill:#000000;fill-opacity:0;stroke:#ffffff;stroke-width:2.26772;stroke-linecap:square;stroke-dasharray:none;stroke-opacity:1"
       d="m 109.13172,196.48471 -24.039917,14.28114 45.223617,-8.92571 10.23482,-7.02156 6.06948,5.71245 -16.54232,1.07109 4.51017,-0.16097 v 0 0"
       id="path13" />
    <path
       style="fill:#000000;fill-opacity:0;stroke:#ffffff;stroke-width:1.51181;stroke-linecap:square;stroke-dasharray:none;stroke-opacity:1"
       d="m 28.317118,175.26805 8.495135,6.3341 -4.545643,9.76195 -11.028772,-7.74995 3.949493,-10.3581 z"
       id="path14" />
    <path
       style="fill:#000000;fill-opacity:0;stroke:#ffffff;stroke-width:1.51181;stroke-linecap:square;stroke-dasharray:none;stroke-opacity:1"
       d="m 32.564685,191.58766 6.408611,-1.1923 4.769199,-9.83648 -7.228317,0.96875 z"
       id="path15" />
    <path
       style="fill:#000000;fill-opacity:0;stroke:#ffffff;stroke-width:1.51181;stroke-linecap:square;stroke-dasharray:none;stroke-opacity:1"
       d="m 44.04057,179.4411 -11.028772,-8.94225 -7.600911,1.71393"
       id="path16" />
    <path
       style="fill:#000000;fill-opacity:0;stroke:#ffffff;stroke-width:1.51181;stroke-linecap:square;stroke-dasharray:none;stroke-opacity:1"
       d="m 39.047815,183.91223 -0.59615,2.012 0.670669,1.04327 1.490374,0.52163 2.235562,-2.01201 2.682674,1.49038 0.149038,-1.78845 2.086524,-1.26682 -2.533636,-1.93749 -3.353343,1.04326 z"
       id="path17" />
    <path
       style="fill:#000000;fill-opacity:0;stroke:#ffffff;stroke-width:1.13386;stroke-linecap:square;stroke-dasharray:none;stroke-opacity:1"
       d="m 48.126644,185.17667 2.121816,4.05074 -0.192892,8.58371"
       id="path18" />
    <path
       style="fill:#000000;fill-opacity:0;stroke:#ffffff;stroke-width:1.13386;stroke-linecap:square;stroke-dasharray:none;stroke-opacity:1"
       d="m 45.715489,187.87716 1.253801,2.98983 -0.192893,7.04057"
       id="path19" />
    <path
       style="fill:#000000;fill-opacity:0;stroke:#ffffff;stroke-width:1.51181;stroke-linecap:square;stroke-dasharray:none;stroke-opacity:1"
       d="m 42.243427,194.24261 -1.350247,2.31471 0.578677,1.83247 12.345112,-0.0964 2.411154,-2.21827 -2.121816,-2.02537 z"
       id="path20" />
    <path
       style="fill:#000000;fill-opacity:0;stroke:#ffffff;stroke-width:1.51181;stroke-linecap:square;stroke-dasharray:none;stroke-opacity:1"
       d="m 41.471857,199.06492 0.289339,3.7614 1.639585,2.21826 9.83751,0.0965 2.02537,-2.50761 0.482231,-6.84767"
       id="path21" />
    <path
       style="fill:#000000;fill-opacity:0;stroke:#ffffff;stroke-width:1.51181;stroke-linecap:square;stroke-dasharray:none;stroke-opacity:1"
       d="m 41.086073,201.9583 -2.314709,1.06091 1.060908,4.72586 17.360313,0.19289 1.639585,-2.89338 -2.989832,-4.14719"
       id="path22" />
    <path
       style="fill:#000000;fill-opacity:0;stroke:#ffffff;stroke-width:1.51181;stroke-linecap:square;stroke-dasharray:none;stroke-opacity:1"
       d="m 198.52706,156.9786 9.64137,0.1598 -2.7699,5.59306 3.51564,17.68473 -12.358,-0.37287 4.04831,-17.31186 z"
       id="path23" />
    <circle
       style="fill:#ffffff;fill-opacity:1;stroke:#ffffff;stroke-width:1.51181;stroke-linecap:square;stroke-dasharray:none;stroke-opacity:1"
       id="path24"
       cx="38.16489"
       cy="173.86229"
       r="2.5178227" />
    <path
       style="fill:#ffffff;fill-opacity:1;stroke:#ffffff;stroke-width:1.51181;stroke-linecap:square;stroke-dasharray:none;stroke-opacity:1"
       d="m 50.538217,172.43309 0.729619,-2.86983 1.848366,-0.8269 1.410595,2.09157 -3.064397,4.76684 z"
       id="path25" />
    <path
       style="fill:#ffffff;fill-opacity:1;stroke:#ffffff;stroke-width:1.51181;stroke-linecap:square;stroke-dasharray:none;stroke-opacity:1"
       d="m 57.007498,175.54612 0.389129,-3.35624 2.334779,-0.8269 0.972824,2.67527 -3.356244,3.74537 z"
       id="path26" />
    <path
       style="fill:#ffffff;fill-opacity:1;stroke:#ffffff;stroke-width:1.51181;stroke-linecap:square;stroke-dasharray:none;stroke-opacity:1"
       d="m 51.997454,180.1184 0.680977,-0.97282 1.799725,-0.43777 0.972824,1.45923 -3.550808,4.52363 z"
       id="path27" />
    <path
       style="fill:#ffffff;fill-opacity:1;stroke:#ffffff;stroke-width:1.51181;stroke-linecap:square;stroke-dasharray:none;stroke-opacity:1"
       d="m 57.688475,183.76649 v 0 l 1.070107,-2.38342 2.188854,1.36196 -0.291847,3.01575 -3.113037,2.14022 z"
       id="path28" />
    <path
       style="fill:#ffffff;fill-opacity:1;stroke:#ffffff;stroke-width:1.51181;stroke-linecap:square;stroke-dasharray:none;stroke-opacity:1"
       d="m 105.53131,150.33421 3.37013,45.86019 7.40107,-2.24675 z"
       id="path29" />
    <path
       style="fill:#ff0000;fill-opacity:0;stroke:#ffffff;stroke-width:1.51181;stroke-linecap:square;stroke-dasharray:none;stroke-opacity:1"
       d="m 204.53029,157.51511 9.74496,-11.5116 -4.61603,-1.48169 -2.10856,-4.90098 4.95796,0.39892 1.88061,4.90098 2.8494,-4.55905 4.73001,-0.79784 -1.31072,4.95797 -4.95797,1.19675 3.13435,4.10314 -1.08277,4.50206 -4.04616,-3.41928 0.39892,-4.55905 z"
       id="path30" />
    <path
       style="fill:#ff0000;fill-opacity:0;stroke:#ffffff;stroke-width:1.51181;stroke-linecap:square;stroke-dasharray:none;stroke-opacity:1"
       d="m 201.28197,157.11619 -3.8752,-16.12763 -0.79783,4.2741 -3.41928,2.84941 -1.02579,-4.50206 3.8182,-3.70423 -5.86977,0.74085 -4.90098,-5.98375 6.26869,-1.08278 5.01495,4.50206 1.9376,-5.92676 5.35688,-1.76663 0.51289,3.41929 -5.52784,3.87519 4.95796,0.62687 1.82362,5.01495 -2.79241,1.36771 -5.07195,-4.55904 -0.11397,1.19675 z"
       id="path31" />
    <ellipse
       style="fill:#ffffff;fill-opacity:1;stroke:#ffffff;stroke-width:1.51181;stroke-linecap:square;stroke-dasharray:none;stroke-opacity:1"
       id="path32"
       cx="197.2928"
       cy="139.3074"
       rx="2.0515716"
       ry="1.9660894" />
    <ellipse
       style="fill:#ffffff;fill-opacity:1;stroke:#ffffff;stroke-width:1.51181;stroke-linecap:square;stroke-dasharray:none;stroke-opacity:1"
       id="path33"
       cx="214.70267"
       cy="145.66158"
       rx="1.168256"
       ry="1.1397619" />
  </g>
</svg>
